<svg width="19" height="21" viewBox="0 0 19 21" fill="none" xmlns="http://www.w3.org/2000/svg">
<path d="M7.875 0C6.43125 0 5.25 1.18125 5.25 2.625H2.625C1.18125 2.625 0 3.80625 0 5.25H18.375C18.375 3.80625 17.1938 2.625 15.75 2.625H13.125C13.125 1.18125 11.9438 0 10.5 0H7.875ZM2.625 7.875V20.5012C2.625 20.79 2.835 21 3.12375 21H15.2775C15.5663 21 15.7763 20.79 15.7763 20.5012V7.875H13.1513V17.0625C13.1513 17.7975 12.5738 18.375 11.8388 18.375C11.1038 18.375 10.5263 17.7975 10.5263 17.0625V7.875H7.90125V17.0625C7.90125 17.7975 7.32375 18.375 6.58875 18.375C5.85375 18.375 5.27625 17.7975 5.27625 17.0625V7.875H2.65125H2.625Z" fill="#DE7E0A"/>
</svg>
