<svg width="30" height="31" viewBox="0 0 30 31" fill="none" xmlns="http://www.w3.org/2000/svg">
<path d="M29.592 26.8015L23.7498 20.7656C23.4861 20.4931 23.1286 20.3418 22.7536 20.3418H21.7985C23.4158 18.2047 24.3768 15.5166 24.3768 12.5925C24.3768 5.63636 18.9213 0 12.1884 0C5.45548 0 0 5.63636 0 12.5925C0 19.5487 5.45548 25.185 12.1884 25.185C15.0187 25.185 17.6204 24.1922 19.6889 22.5212V23.5081C19.6889 23.8955 19.8354 24.2648 20.0991 24.5373L25.9414 30.5732C26.4922 31.1423 27.3829 31.1423 27.9278 30.5732L29.5861 28.8599C30.137 28.2908 30.137 27.3706 29.592 26.8015ZM12.1884 20.3418C8.04551 20.3418 4.68784 16.8788 4.68784 12.5925C4.68784 8.31227 8.03965 4.84328 12.1884 4.84328C16.3313 4.84328 19.6889 8.30622 19.6889 12.5925C19.6889 16.8728 16.3371 20.3418 12.1884 20.3418Z" fill="#6B3E26"/>
</svg>
