<svg width="97" height="101" viewBox="0 0 97 101" fill="none" xmlns="http://www.w3.org/2000/svg">
<path d="M0 47.8106L11.4118 59.7633H85.5882V58.568C85.5882 58.0899 87.1098 57.9704 87.8706 57.9704L93.5765 52.5917L95.8588 46.6154L97 43.0296V35.858H95.8588V32.2722L93.0059 26.2959L90.1529 22.7101L87.8706 20.3195L84.4471 17.929L79.3118 16.1361L62.7647 2.98817L57.0588 0H38.8L33.0941 2.39053L25.1059 8.36686L18.8294 16.7337L11.4118 19.1243L0 34.6627V47.8106Z" fill="#FFAC36"/>
<path d="M17.1176 88.4497L14.8353 66.3373H31.9529L34.8059 99.8047H25.1059L17.6882 94.426L17.1176 88.4497Z" fill="#FFAC36"/>
<path d="M38.8 98.6095L37.0882 66.3373H59.9118L55.3471 101H38.8V98.6095Z" fill="#FFAC36"/>
<path d="M61.6235 99.8047L65.0471 66.3373L81.5941 65.7396L78.7412 90.8402L71.3235 99.8047H61.6235Z" fill="#FFAC36"/>
</svg>
