<svg width="37" height="40" viewBox="0 0 37 40" fill="none" xmlns="http://www.w3.org/2000/svg">
<path d="M33.0357 20H12.5536V11.9454C12.5536 8.85162 15.1717 6.28131 18.4422 6.25006C21.7458 6.21881 24.4464 8.75787 24.4464 11.8751V13.1251C24.4464 14.1641 25.3301 15 26.4286 15H29.0714C30.1699 15 31.0536 14.1641 31.0536 13.1251V11.8751C31.0536 5.31257 25.3962 -0.0233605 18.4587 7.69154e-05C11.5212 0.0235144 5.94643 5.42975 5.94643 11.9922V20H3.96429C1.77567 20 0 21.6797 0 23.75V36.25C0 38.3203 1.77567 40 3.96429 40H33.0357C35.2243 40 37 38.3203 37 36.25V23.75C37 21.6797 35.2243 20 33.0357 20Z" fill="black"/>
</svg>
